<svg width="76" height="65" viewBox="0 0 76 65" fill="none" xmlns="http://www.w3.org/2000/svg">
<path d="M64.63 35.8259C51.7479 34.0777 41.8001 23.5511 41.8001 10.8333C41.8001 7.22178 42.6128 3.79537 44.0531 0.685679C42.1076 0.252584 40.0864 0 37.9997 0C23.3322 0 11.4 11.3385 11.4 25.2776V35.3452C11.4 42.4916 8.10536 49.2373 2.32536 53.881C0.847483 55.0798 0 56.8314 0 58.6801C0 62.1654 2.98289 65 6.64975 65H69.3496C73.0171 65 76 62.1654 76 58.6801C76 56.8314 75.1525 55.0798 73.6364 53.8486C68.0275 49.3385 64.7747 42.7911 64.63 35.8259V35.8259Z" fill="url(#paint0_linear_4632_11008)"/>
<defs>
<linearGradient id="paint0_linear_4632_11008" x1="-4.88244" y1="52.7778" x2="65.7766" y2="10.8033" gradientUnits="userSpaceOnUse">
<stop stop-color="#FFBA08"/>
<stop offset="1" stop-color="#FFDB7E"/>
</linearGradient>
</defs>
</svg>
